<svg xmlns="http://www.w3.org/2000/svg"
 viewBox="-0.57865286 -1.2001555 1.2573057 1.2573059"
>
<polyline
 fill="none" stroke="green" stroke-width="0.25%"
 points="
  0.000000,  0.000000
  0.100000,  0.000000
  0.100000,  0.000000
  0.198481, -0.017365
  0.198481, -0.017365
  0.292450, -0.051567
  0.292450, -0.051567
  0.379053, -0.101567
  0.379053, -0.101567
  0.455657, -0.165846
  0.455657, -0.165846
  0.519936, -0.242450
  0.519936, -0.242450
  0.569936, -0.329053
  0.569936, -0.329053
  0.604138, -0.423022
  0.604138, -0.423022
  0.621503, -0.521503
  0.621503, -0.521503
  0.621503, -0.621503
  0.621503, -0.621503
  0.604138, -0.719983
  0.604138, -0.719983
  0.569936, -0.813953
  0.569936, -0.813953
  0.519936, -0.900555
  0.519936, -0.900555
  0.455657, -0.977160
  0.455657, -0.977160
  0.379053, -1.041438
  0.379053, -1.041438
  0.292450, -1.091438
  0.292450, -1.091438
  0.198481, -1.125640
  0.198481, -1.125640
  0.100000, -1.143005
  0.100000, -1.143005
 -0.000000, -1.143005
 -0.000000, -1.143005
 -0.098481, -1.125640
 -0.098481, -1.125640
 -0.192450, -1.091438
 -0.192450, -1.091438
 -0.279053, -1.041438
 -0.279053, -1.041438
 -0.355657, -0.977160
 -0.355657, -0.977160
 -0.419936, -0.900555
 -0.419936, -0.900555
 -0.469936, -0.813953
 -0.469936, -0.813953
 -0.504138, -0.719983
 -0.504138, -0.719983
 -0.521503, -0.621503
 -0.521503, -0.621503
 -0.521503, -0.521503
 -0.521503, -0.521503
 -0.504138, -0.423022
 -0.504138, -0.423022
 -0.469936, -0.329053
 -0.469936, -0.329053
 -0.419936, -0.242450
 -0.419936, -0.242450
 -0.355657, -0.165846
 -0.355657, -0.165846
 -0.279053, -0.101567
 -0.279053, -0.101567
 -0.192450, -0.051567
 -0.192450, -0.051567
 -0.098481, -0.017365
 -0.098481, -0.017365
 -0.000000,  0.000000
 -0.000000,  0.000000
 "
/>
</svg>
