<svg xmlns="http://www.w3.org/2000/svg"
 viewBox="-3.5074017 -73.65543 250.0148 77.162834"
>
<polyline
 fill="none" stroke="green" stroke-width="0.25%"
 points="
  0.000000,  0.000000
  1.000000,  0.000000
  1.000000,  0.000000
  1.500000, -0.866025
  1.500000, -0.866025
  1.500000, -0.866025
  2.000000,  0.000000
  2.000000,  0.000000
  3.000000,  0.000000
  3.000000,  0.000000
  3.500000, -0.866025
  3.500000, -0.866025
  3.000000, -1.732051
  3.000000, -1.732051
  3.000000, -1.732051
  4.000000, -1.732051
  4.000000, -1.732051
  4.500000, -2.598076
  4.500000, -2.598076
  4.500000, -2.598076
  5.000000, -1.732051
  5.000000, -1.732051
  6.000000, -1.732051
  6.000000, -1.732051
  6.000000, -1.732051
  5.500000, -0.866026
  5.500000, -0.866026
  6.000000, -0.000000
  6.000000, -0.000000
  7.000000, -0.000000
  7.000000, -0.000000
  7.500000, -0.866026
  7.500000, -0.866026
  7.500000, -0.866026
  8.000000, -0.000000
  8.000000, -0.000000
  9.000000, -0.000000
  9.000000, -0.000000
  9.500000, -0.866026
  9.500000, -0.866026
  9.000000, -1.732051
  9.000000, -1.732051
  9.000000, -1.732051
 10.000000, -1.732051
 10.000000, -1.732051
 10.500000, -2.598076
 10.500000, -2.598076
 10.000000, -3.464102
 10.000000, -3.464102
  9.000000, -3.464102
  9.000000, -3.464102
  9.000000, -3.464102
  9.500000, -4.330127
  9.500000, -4.330127
  9.000000, -5.196153
  9.000000, -5.196153
  9.000000, -5.196153
 10.000000, -5.196153
 10.000000, -5.196153
 10.500000, -6.062178
 10.500000, -6.062178
 10.500000, -6.062178
 11.000000, -5.196153
 11.000000, -5.196153
 12.000000, -5.196153
 12.000000, -5.196153
 12.500000, -6.062178
 12.500000, -6.062178
 12.000000, -6.928204
 12.000000, -6.928204
 12.000000, -6.928204
 13.000000, -6.928204
 13.000000, -6.928204
 13.500000, -7.794229
 13.500000, -7.794229
 13.500000, -7.794229
 14.000000, -6.928204
 14.000000, -6.928204
 15.000000, -6.928204
 15.000000, -6.928204
 15.000000, -6.928204
 14.500000, -6.062178
 14.500000, -6.062178
 15.000000, -5.196153
 15.000000, -5.196153
 16.000000, -5.196153
 16.000000, -5.196153
 16.500000, -6.062178
 16.500000, -6.062178
 16.500000, -6.062178
 17.000000, -5.196153
 17.000000, -5.196153
 18.000000, -5.196153
 18.000000, -5.196153
 18.000000, -5.196153
 17.500000, -4.330127
 17.500000, -4.330127
 18.000000, -3.464102
 18.000000, -3.464102
 18.000000, -3.464102
 17.000000, -3.464102
 17.000000, -3.464102
 16.500000, -2.598076
 16.500000, -2.598076
 17.000000, -1.732051
 17.000000, -1.732051
 18.000000, -1.732051
 18.000000, -1.732051
 18.000000, -1.732051
 17.500000, -0.866026
 17.500000, -0.866026
 18.000000, -0.000000
 18.000000, -0.000000
 19.000000, -0.000000
 19.000000, -0.000000
 19.500000, -0.866026
 19.500000, -0.866026
 19.500000, -0.866026
 20.000000, -0.000000
 20.000000, -0.000000
 21.000000, -0.000000
 21.000000, -0.000000
 21.500000, -0.866026
 21.500000, -0.866026
 21.000000, -1.732051
 21.000000, -1.732051
 21.000000, -1.732051
 22.000000, -1.732051
 22.000000, -1.732051
 22.500000, -2.598076
 22.500000, -2.598076
 22.500000, -2.598076
 23.000000, -1.732051
 23.000000, -1.732051
 24.000000, -1.732051
 24.000000, -1.732051
 24.000000, -1.732051
 23.500000, -0.866026
 23.500000, -0.866026
 24.000000, -0.000000
 24.000000, -0.000000
 25.000000, -0.000000
 25.000000, -0.000000
 25.500000, -0.866026
 25.500000, -0.866026
 25.500000, -0.866026
 26.000000, -0.000000
 26.000000, -0.000000
 27.000000, -0.000000
 27.000000, -0.000000
 27.500000, -0.866026
 27.500000, -0.866026
 27.000000, -1.732051
 27.000000, -1.732051
 27.000000, -1.732051
 28.000000, -1.732051
 28.000000, -1.732051
 28.500000, -2.598076
 28.500000, -2.598076
 28.000000, -3.464102
 28.000000, -3.464102
 27.000000, -3.464102
 27.000000, -3.464102
 27.000000, -3.464102
 27.500000, -4.330127
 27.500000, -4.330127
 27.000000, -5.196153
 27.000000, -5.196153
 27.000000, -5.196153
 28.000000, -5.196153
 28.000000, -5.196153
 28.500000, -6.062178
 28.500000, -6.062178
 28.500000, -6.062178
 29.000000, -5.196153
 29.000000, -5.196153
 30.000000, -5.196153
 30.000000, -5.196153
 30.500000, -6.062178
 30.500000, -6.062178
 30.000000, -6.928204
 30.000000, -6.928204
 30.000000, -6.928204
 31.000000, -6.928204
 31.000000, -6.928204
 31.500000, -7.794229
 31.500000, -7.794229
 31.000000, -8.660254
 31.000000, -8.660254
 30.000000, -8.660254
 30.000000, -8.660254
 30.000000, -8.660254
 30.500000, -9.526279
 30.500000, -9.526279
 30.000000,-10.392304
 30.000000,-10.392304
 29.000000,-10.392304
 29.000000,-10.392304
 28.500000, -9.526279
 28.500000, -9.526279
 28.500000, -9.526279
 28.000000,-10.392304
 28.000000,-10.392304
 27.000000,-10.392304
 27.000000,-10.392304
 27.000000,-10.392304
 27.500000,-11.258329
 27.500000,-11.258329
 27.000000,-12.124354
 27.000000,-12.124354
 27.000000,-12.124354
 28.000000,-12.124354
 28.000000,-12.124354
 28.500000,-12.990379
 28.500000,-12.990379
 28.000000,-13.856404
 28.000000,-13.856404
 27.000000,-13.856404
 27.000000,-13.856404
 27.000000,-13.856404
 27.500000,-14.722429
 27.500000,-14.722429
 27.000000,-15.588454
 27.000000,-15.588454
 27.000000,-15.588454
 28.000000,-15.588454
 28.000000,-15.588454
 28.500000,-16.454480
 28.500000,-16.454480
 28.500000,-16.454480
 29.000000,-15.588453
 29.000000,-15.588453
 30.000000,-15.588453
 30.000000,-15.588453
 30.500000,-16.454480
 30.500000,-16.454480
 30.000000,-17.320505
 30.000000,-17.320505
 30.000000,-17.320505
 31.000000,-17.320505
 31.000000,-17.320505
 31.500000,-18.186531
 31.500000,-18.186531
 31.500000,-18.186531
 32.000000,-17.320505
 32.000000,-17.320505
 33.000000,-17.320505
 33.000000,-17.320505
 33.000000,-17.320505
 32.500000,-16.454480
 32.500000,-16.454480
 33.000000,-15.588453
 33.000000,-15.588453
 34.000000,-15.588453
 34.000000,-15.588453
 34.500000,-16.454480
 34.500000,-16.454480
 34.500000,-16.454480
 35.000000,-15.588453
 35.000000,-15.588453
 36.000000,-15.588453
 36.000000,-15.588453
 36.500000,-16.454480
 36.500000,-16.454480
 36.000000,-17.320505
 36.000000,-17.320505
 36.000000,-17.320505
 37.000000,-17.320505
 37.000000,-17.320505
 37.500000,-18.186531
 37.500000,-18.186531
 37.000000,-19.052557
 37.000000,-19.052557
 36.000000,-19.052557
 36.000000,-19.052557
 36.000000,-19.052557
 36.500000,-19.918583
 36.500000,-19.918583
 36.000000,-20.784609
 36.000000,-20.784609
 36.000000,-20.784609
 37.000000,-20.784609
 37.000000,-20.784609
 37.500000,-21.650635
 37.500000,-21.650635
 37.500000,-21.650635
 38.000000,-20.784609
 38.000000,-20.784609
 39.000000,-20.784609
 39.000000,-20.784609
 39.500000,-21.650635
 39.500000,-21.650635
 39.000000,-22.516660
 39.000000,-22.516660
 39.000000,-22.516660
 40.000000,-22.516660
 40.000000,-22.516660
 40.500000,-23.382687
 40.500000,-23.382687
 40.500000,-23.382687
 41.000000,-22.516660
 41.000000,-22.516660
 42.000000,-22.516660
 42.000000,-22.516660
 42.000000,-22.516660
 41.500000,-21.650635
 41.500000,-21.650635
 42.000000,-20.784609
 42.000000,-20.784609
 43.000000,-20.784609
 43.000000,-20.784609
 43.500000,-21.650635
 43.500000,-21.650635
 43.500000,-21.650635
 44.000000,-20.784609
 44.000000,-20.784609
 45.000000,-20.784609
 45.000000,-20.784609
 45.000000,-20.784609
 44.500000,-19.918583
 44.500000,-19.918583
 45.000000,-19.052557
 45.000000,-19.052557
 45.000000,-19.052557
 44.000000,-19.052557
 44.000000,-19.052557
 43.500000,-18.186531
 43.500000,-18.186531
 44.000000,-17.320505
 44.000000,-17.320505
 45.000000,-17.320505
 45.000000,-17.320505
 45.000000,-17.320505
 44.500000,-16.454480
 44.500000,-16.454480
 45.000000,-15.588453
 45.000000,-15.588453
 46.000000,-15.588453
 46.000000,-15.588453
 46.500000,-16.454480
 46.500000,-16.454480
 46.500000,-16.454480
 47.000000,-15.588453
 47.000000,-15.588453
 48.000000,-15.588453
 48.000000,-15.588453
 48.500000,-16.454480
 48.500000,-16.454480
 48.000000,-17.320505
 48.000000,-17.320505
 48.000000,-17.320505
 49.000000,-17.320505
 49.000000,-17.320505
 49.500000,-18.186531
 49.500000,-18.186531
 49.500000,-18.186531
 50.000000,-17.320505
 50.000000,-17.320505
 51.000000,-17.320505
 51.000000,-17.320505
 51.000000,-17.320505
 50.500000,-16.454480
 50.500000,-16.454480
 51.000000,-15.588453
 51.000000,-15.588453
 52.000000,-15.588453
 52.000000,-15.588453
 52.500000,-16.454480
 52.500000,-16.454480
 52.500000,-16.454480
 53.000000,-15.588453
 53.000000,-15.588453
 54.000000,-15.588453
 54.000000,-15.588453
 54.000000,-15.588453
 53.500000,-14.722428
 53.500000,-14.722428
 54.000000,-13.856403
 54.000000,-13.856403
 54.000000,-13.856403
 53.000000,-13.856403
 53.000000,-13.856403
 52.500000,-12.990378
 52.500000,-12.990378
 53.000000,-12.124353
 53.000000,-12.124353
 54.000000,-12.124353
 54.000000,-12.124353
 54.000000,-12.124353
 53.500000,-11.258328
 53.500000,-11.258328
 54.000000,-10.392303
 54.000000,-10.392303
 54.000000,-10.392303
 53.000000,-10.392303
 53.000000,-10.392303
 52.500000, -9.526278
 52.500000, -9.526278
 52.500000, -9.526278
 52.000000,-10.392303
 52.000000,-10.392303
 51.000000,-10.392303
 51.000000,-10.392303
 50.500000, -9.526278
 50.500000, -9.526278
 51.000000, -8.660254
 51.000000, -8.660254
 51.000000, -8.660254
 50.000000, -8.660254
 50.000000, -8.660254
 49.500000, -7.794228
 49.500000, -7.794228
 50.000000, -6.928203
 50.000000, -6.928203
 51.000000, -6.928203
 51.000000, -6.928203
 51.000000, -6.928203
 50.500000, -6.062177
 50.500000, -6.062177
 51.000000, -5.196152
 51.000000, -5.196152
 52.000000, -5.196152
 52.000000, -5.196152
 52.500000, -6.062177
 52.500000, -6.062177
 52.500000, -6.062177
 53.000000, -5.196152
 53.000000, -5.196152
 54.000000, -5.196152
 54.000000, -5.196152
 54.000000, -5.196152
 53.500000, -4.330126
 53.500000, -4.330126
 54.000000, -3.464101
 54.000000, -3.464101
 54.000000, -3.464101
 53.000000, -3.464101
 53.000000, -3.464101
 52.500000, -2.598075
 52.500000, -2.598075
 53.000000, -1.732050
 53.000000, -1.732050
 54.000000, -1.732050
 54.000000, -1.732050
 54.000000, -1.732050
 53.500000, -0.866025
 53.500000, -0.866025
 54.000000,  0.000001
 54.000000,  0.000001
 55.000000,  0.000001
 55.000000,  0.000001
 55.500000, -0.866025
 55.500000, -0.866025
 55.500000, -0.866025
 56.000000,  0.000001
 56.000000,  0.000001
 57.000000,  0.000001
 57.000000,  0.000001
 57.500000, -0.866025
 57.500000, -0.866025
 57.000000, -1.732050
 57.000000, -1.732050
 57.000000, -1.732050
 58.000000, -1.732050
 58.000000, -1.732050
 58.500000, -2.598075
 58.500000, -2.598075
 58.500000, -2.598075
 59.000000, -1.732050
 59.000000, -1.732050
 60.000000, -1.732050
 60.000000, -1.732050
 60.000000, -1.732050
 59.500000, -0.866025
 59.500000, -0.866025
 60.000000,  0.000001
 60.000000,  0.000001
 61.000000,  0.000001
 61.000000,  0.000001
 61.500000, -0.866025
 61.500000, -0.866025
 61.500000, -0.866025
 62.000000,  0.000001
 62.000000,  0.000001
 63.000000,  0.000001
 63.000000,  0.000001
 63.500000, -0.866025
 63.500000, -0.866025
 63.000000, -1.732050
 63.000000, -1.732050
 63.000000, -1.732050
 64.000000, -1.732050
 64.000000, -1.732050
 64.500000, -2.598075
 64.500000, -2.598075
 64.000000, -3.464101
 64.000000, -3.464101
 63.000000, -3.464101
 63.000000, -3.464101
 63.000000, -3.464101
 63.500000, -4.330126
 63.500000, -4.330126
 63.000000, -5.196152
 63.000000, -5.196152
 63.000000, -5.196152
 64.000000, -5.196152
 64.000000, -5.196152
 64.500000, -6.062177
 64.500000, -6.062177
 64.500000, -6.062177
 65.000000, -5.196152
 65.000000, -5.196152
 66.000000, -5.196152
 66.000000, -5.196152
 66.500000, -6.062177
 66.500000, -6.062177
 66.000000, -6.928203
 66.000000, -6.928203
 66.000000, -6.928203
 67.000000, -6.928203
 67.000000, -6.928203
 67.500000, -7.794228
 67.500000, -7.794228
 67.500000, -7.794228
 68.000000, -6.928203
 68.000000, -6.928203
 69.000000, -6.928203
 69.000000, -6.928203
 69.000000, -6.928203
 68.500000, -6.062177
 68.500000, -6.062177
 69.000000, -5.196152
 69.000000, -5.196152
 70.000000, -5.196152
 70.000000, -5.196152
 70.500000, -6.062177
 70.500000, -6.062177
 70.500000, -6.062177
 71.000000, -5.196152
 71.000000, -5.196152
 72.000000, -5.196152
 72.000000, -5.196152
 72.000000, -5.196152
 71.500000, -4.330126
 71.500000, -4.330126
 72.000000, -3.464101
 72.000000, -3.464101
 72.000000, -3.464101
 71.000000, -3.464101
 71.000000, -3.464101
 70.500000, -2.598075
 70.500000, -2.598075
 71.000000, -1.732050
 71.000000, -1.732050
 72.000000, -1.732050
 72.000000, -1.732050
 72.000000, -1.732050
 71.500000, -0.866025
 71.500000, -0.866025
 72.000000,  0.000001
 72.000000,  0.000001
 73.000000,  0.000001
 73.000000,  0.000001
 73.500000, -0.866025
 73.500000, -0.866025
 73.500000, -0.866025
 74.000000,  0.000001
 74.000000,  0.000001
 75.000000,  0.000001
 75.000000,  0.000001
 75.500000, -0.866025
 75.500000, -0.866025
 75.000000, -1.732050
 75.000000, -1.732050
 75.000000, -1.732050
 76.000000, -1.732050
 76.000000, -1.732050
 76.500000, -2.598075
 76.500000, -2.598075
 76.500000, -2.598075
 77.000000, -1.732050
 77.000000, -1.732050
 78.000000, -1.732050
 78.000000, -1.732050
 78.000000, -1.732050
 77.500000, -0.866025
 77.500000, -0.866025
 78.000000,  0.000001
 78.000000,  0.000001
 79.000000,  0.000001
 79.000000,  0.000001
 79.500000, -0.866025
 79.500000, -0.866025
 79.500000, -0.866025
 80.000000,  0.000001
 80.000000,  0.000001
 81.000000,  0.000001
 81.000000,  0.000001
 81.500000, -0.866025
 81.500000, -0.866025
 81.000000, -1.732050
 81.000000, -1.732050
 81.000000, -1.732050
 82.000000, -1.732050
 82.000000, -1.732050
 82.500000, -2.598075
 82.500000, -2.598075
 82.000000, -3.464101
 82.000000, -3.464101
 81.000000, -3.464101
 81.000000, -3.464101
 81.000000, -3.464101
 81.500000, -4.330126
 81.500000, -4.330126
 81.000000, -5.196152
 81.000000, -5.196152
 81.000000, -5.196152
 82.000000, -5.196152
 82.000000, -5.196152
 82.500000, -6.062177
 82.500000, -6.062177
 82.500000, -6.062177
 83.000000, -5.196152
 83.000000, -5.196152
 84.000000, -5.196152
 84.000000, -5.196152
 84.500000, -6.062177
 84.500000, -6.062177
 84.000000, -6.928203
 84.000000, -6.928203
 84.000000, -6.928203
 85.000000, -6.928203
 85.000000, -6.928203
 85.500000, -7.794228
 85.500000, -7.794228
 85.000000, -8.660254
 85.000000, -8.660254
 84.000000, -8.660254
 84.000000, -8.660254
 84.000000, -8.660254
 84.500000, -9.526279
 84.500000, -9.526279
 84.000000,-10.392304
 84.000000,-10.392304
 83.000000,-10.392304
 83.000000,-10.392304
 82.500000, -9.526279
 82.500000, -9.526279
 82.500000, -9.526279
 82.000000,-10.392304
 82.000000,-10.392304
 81.000000,-10.392304
 81.000000,-10.392304
 81.000000,-10.392304
 81.500000,-11.258329
 81.500000,-11.258329
 81.000000,-12.124354
 81.000000,-12.124354
 81.000000,-12.124354
 82.000000,-12.124354
 82.000000,-12.124354
 82.500000,-12.990379
 82.500000,-12.990379
 82.000000,-13.856404
 82.000000,-13.856404
 81.000000,-13.856404
 81.000000,-13.856404
 81.000000,-13.856404
 81.500000,-14.722429
 81.500000,-14.722429
 81.000000,-15.588454
 81.000000,-15.588454
 81.000000,-15.588454
 82.000000,-15.588454
 82.000000,-15.588454
 82.500000,-16.454480
 82.500000,-16.454480
 82.500000,-16.454480
 83.000000,-15.588453
 83.000000,-15.588453
 84.000000,-15.588453
 84.000000,-15.588453
 84.500000,-16.454480
 84.500000,-16.454480
 84.000000,-17.320505
 84.000000,-17.320505
 84.000000,-17.320505
 85.000000,-17.320505
 85.000000,-17.320505
 85.500000,-18.186531
 85.500000,-18.186531
 85.500000,-18.186531
 86.000000,-17.320505
 86.000000,-17.320505
 87.000000,-17.320505
 87.000000,-17.320505
 87.000000,-17.320505
 86.500000,-16.454480
 86.500000,-16.454480
 87.000000,-15.588453
 87.000000,-15.588453
 88.000000,-15.588453
 88.000000,-15.588453
 88.500000,-16.454480
 88.500000,-16.454480
 88.500000,-16.454480
 89.000000,-15.588453
 89.000000,-15.588453
 90.000000,-15.588453
 90.000000,-15.588453
 90.500000,-16.454480
 90.500000,-16.454480
 90.000000,-17.320505
 90.000000,-17.320505
 90.000000,-17.320505
 91.000000,-17.320505
 91.000000,-17.320505
 91.500000,-18.186531
 91.500000,-18.186531
 91.000000,-19.052557
 91.000000,-19.052557
 90.000000,-19.052557
 90.000000,-19.052557
 90.000000,-19.052557
 90.500000,-19.918583
 90.500000,-19.918583
 90.000000,-20.784609
 90.000000,-20.784609
 90.000000,-20.784609
 91.000000,-20.784609
 91.000000,-20.784609
 91.500000,-21.650635
 91.500000,-21.650635
 91.500000,-21.650635
 92.000000,-20.784609
 92.000000,-20.784609
 93.000000,-20.784609
 93.000000,-20.784609
 93.500000,-21.650635
 93.500000,-21.650635
 93.000000,-22.516660
 93.000000,-22.516660
 93.000000,-22.516660
 94.000000,-22.516660
 94.000000,-22.516660
 94.500000,-23.382687
 94.500000,-23.382687
 94.000000,-24.248713
 94.000000,-24.248713
 93.000000,-24.248713
 93.000000,-24.248713
 93.000000,-24.248713
 93.500000,-25.114738
 93.500000,-25.114738
 93.000000,-25.980764
 93.000000,-25.980764
 92.000000,-25.980764
 92.000000,-25.980764
 91.500000,-25.114738
 91.500000,-25.114738
 91.500000,-25.114738
 91.000000,-25.980764
 91.000000,-25.980764
 90.000000,-25.980764
 90.000000,-25.980764
 90.000000,-25.980764
 90.500000,-26.846790
 90.500000,-26.846790
 90.000000,-27.712816
 90.000000,-27.712816
 90.000000,-27.712816
 91.000000,-27.712816
 91.000000,-27.712816
 91.500000,-28.578842
 91.500000,-28.578842
 91.000000,-29.444868
 91.000000,-29.444868
 90.000000,-29.444868
 90.000000,-29.444868
 90.000000,-29.444868
 90.500000,-30.310894
 90.500000,-30.310894
 90.000000,-31.176920
 90.000000,-31.176920
 89.000000,-31.176920
 89.000000,-31.176920
 88.500000,-30.310894
 88.500000,-30.310894
 88.500000,-30.310894
 88.000000,-31.176920
 88.000000,-31.176920
 87.000000,-31.176920
 87.000000,-31.176920
 86.500000,-30.310894
 86.500000,-30.310894
 87.000000,-29.444868
 87.000000,-29.444868
 87.000000,-29.444868
 86.000000,-29.444868
 86.000000,-29.444868
 85.500000,-28.578842
 85.500000,-28.578842
 85.500000,-28.578842
 85.000000,-29.444868
 85.000000,-29.444868
 84.000000,-29.444868
 84.000000,-29.444868
 84.000000,-29.444868
 84.500000,-30.310894
 84.500000,-30.310894
 84.000000,-31.176920
 84.000000,-31.176920
 83.000000,-31.176920
 83.000000,-31.176920
 82.500000,-30.310894
 82.500000,-30.310894
 82.500000,-30.310894
 82.000000,-31.176920
 82.000000,-31.176920
 81.000000,-31.176920
 81.000000,-31.176920
 81.000000,-31.176920
 81.500000,-32.042946
 81.500000,-32.042946
 81.000000,-32.908970
 81.000000,-32.908970
 81.000000,-32.908970
 82.000000,-32.908970
 82.000000,-32.908970
 82.500000,-33.774994
 82.500000,-33.774994
 82.000000,-34.641018
 82.000000,-34.641018
 81.000000,-34.641018
 81.000000,-34.641018
 81.000000,-34.641018
 81.500000,-35.507042
 81.500000,-35.507042
 81.000000,-36.373066
 81.000000,-36.373066
 81.000000,-36.373066
 82.000000,-36.373066
 82.000000,-36.373066
 82.500000,-37.239090
 82.500000,-37.239090
 82.500000,-37.239090
 83.000000,-36.373066
 83.000000,-36.373066
 84.000000,-36.373066
 84.000000,-36.373066
 84.500000,-37.239090
 84.500000,-37.239090
 84.000000,-38.105114
 84.000000,-38.105114
 84.000000,-38.105114
 85.000000,-38.105114
 85.000000,-38.105114
 85.500000,-38.971138
 85.500000,-38.971138
 85.000000,-39.837162
 85.000000,-39.837162
 84.000000,-39.837162
 84.000000,-39.837162
 84.000000,-39.837162
 84.500000,-40.703186
 84.500000,-40.703186
 84.000000,-41.569210
 84.000000,-41.569210
 83.000000,-41.569210
 83.000000,-41.569210
 82.500000,-40.703186
 82.500000,-40.703186
 82.500000,-40.703186
 82.000000,-41.569210
 82.000000,-41.569210
 81.000000,-41.569210
 81.000000,-41.569210
 81.000000,-41.569210
 81.500000,-42.435234
 81.500000,-42.435234
 81.000000,-43.301258
 81.000000,-43.301258
 81.000000,-43.301258
 82.000000,-43.301258
 82.000000,-43.301258
 82.500000,-44.167282
 82.500000,-44.167282
 82.000000,-45.033306
 82.000000,-45.033306
 81.000000,-45.033306
 81.000000,-45.033306
 81.000000,-45.033306
 81.500000,-45.899330
 81.500000,-45.899330
 81.000000,-46.765354
 81.000000,-46.765354
 81.000000,-46.765354
 82.000000,-46.765354
 82.000000,-46.765354
 82.500000,-47.631380
 82.500000,-47.631380
 82.500000,-47.631380
 83.000000,-46.765354
 83.000000,-46.765354
 84.000000,-46.765354
 84.000000,-46.765354
 84.500000,-47.631380
 84.500000,-47.631380
 84.000000,-48.497402
 84.000000,-48.497402
 84.000000,-48.497402
 85.000000,-48.497402
 85.000000,-48.497402
 85.500000,-49.363426
 85.500000,-49.363426
 85.500000,-49.363426
 86.000000,-48.497402
 86.000000,-48.497402
 87.000000,-48.497402
 87.000000,-48.497402
 87.000000,-48.497402
 86.500000,-47.631380
 86.500000,-47.631380
 87.000000,-46.765354
 87.000000,-46.765354
 88.000000,-46.765354
 88.000000,-46.765354
 88.500000,-47.631380
 88.500000,-47.631380
 88.500000,-47.631380
 89.000000,-46.765354
 89.000000,-46.765354
 90.000000,-46.765354
 90.000000,-46.765354
 90.500000,-47.631380
 90.500000,-47.631380
 90.000000,-48.497402
 90.000000,-48.497402
 90.000000,-48.497402
 91.000000,-48.497402
 91.000000,-48.497402
 91.500000,-49.363426
 91.500000,-49.363426
 91.000000,-50.229450
 91.000000,-50.229450
 90.000000,-50.229450
 90.000000,-50.229450
 90.000000,-50.229450
 90.500000,-51.095474
 90.500000,-51.095474
 90.000000,-51.961500
 90.000000,-51.961500
 90.000000,-51.961500
 91.000000,-51.961500
 91.000000,-51.961500
 91.500000,-52.827522
 91.500000,-52.827522
 91.500000,-52.827522
 92.000000,-51.961500
 92.000000,-51.961500
 93.000000,-51.961500
 93.000000,-51.961500
 93.500000,-52.827522
 93.500000,-52.827522
 93.000000,-53.693546
 93.000000,-53.693546
 93.000000,-53.693546
 94.000000,-53.693546
 94.000000,-53.693546
 94.500000,-54.559570
 94.500000,-54.559570
 94.500000,-54.559570
 95.000000,-53.693546
 95.000000,-53.693546
 96.000000,-53.693546
 96.000000,-53.693546
 96.000000,-53.693546
 95.500000,-52.827522
 95.500000,-52.827522
 96.000000,-51.961500
 96.000000,-51.961500
 97.000000,-51.961500
 97.000000,-51.961500
 97.500000,-52.827522
 97.500000,-52.827522
 97.500000,-52.827522
 98.000000,-51.961500
 98.000000,-51.961500
 99.000000,-51.961500
 99.000000,-51.961500
 99.000000,-51.961500
 98.500000,-51.095474
 98.500000,-51.095474
 99.000000,-50.229450
 99.000000,-50.229450
 99.000000,-50.229450
 98.000000,-50.229450
 98.000000,-50.229450
 97.500000,-49.363426
 97.500000,-49.363426
 98.000000,-48.497402
 98.000000,-48.497402
 99.000000,-48.497402
 99.000000,-48.497402
 99.000000,-48.497402
 98.500000,-47.631380
 98.500000,-47.631380
 99.000000,-46.765354
 99.000000,-46.765354
100.000000,-46.765354
100.000000,-46.765354
100.500000,-47.631380
100.500000,-47.631380
100.500000,-47.631380
101.000000,-46.765354
101.000000,-46.765354
102.000000,-46.765354
102.000000,-46.765354
102.500000,-47.631380
102.500000,-47.631380
102.000000,-48.497402
102.000000,-48.497402
102.000000,-48.497402
103.000000,-48.497402
103.000000,-48.497402
103.500000,-49.363426
103.500000,-49.363426
103.500000,-49.363426
104.000000,-48.497402
104.000000,-48.497402
105.000000,-48.497402
105.000000,-48.497402
105.000000,-48.497402
104.500000,-47.631380
104.500000,-47.631380
105.000000,-46.765354
105.000000,-46.765354
106.000000,-46.765354
106.000000,-46.765354
106.500000,-47.631380
106.500000,-47.631380
106.500000,-47.631380
107.000000,-46.765354
107.000000,-46.765354
108.000000,-46.765354
108.000000,-46.765354
108.500000,-47.631380
108.500000,-47.631380
108.000000,-48.497402
108.000000,-48.497402
108.000000,-48.497402
109.000000,-48.497402
109.000000,-48.497402
109.500000,-49.363426
109.500000,-49.363426
109.000000,-50.229450
109.000000,-50.229450
108.000000,-50.229450
108.000000,-50.229450
108.000000,-50.229450
108.500000,-51.095474
108.500000,-51.095474
108.000000,-51.961500
108.000000,-51.961500
108.000000,-51.961500
109.000000,-51.961500
109.000000,-51.961500
109.500000,-52.827522
109.500000,-52.827522
109.500000,-52.827522
110.000000,-51.961500
110.000000,-51.961500
111.000000,-51.961500
111.000000,-51.961500
111.500000,-52.827522
111.500000,-52.827522
111.000000,-53.693546
111.000000,-53.693546
111.000000,-53.693546
112.000000,-53.693546
112.000000,-53.693546
112.500000,-54.559570
112.500000,-54.559570
112.000000,-55.425594
112.000000,-55.425594
111.000000,-55.425594
111.000000,-55.425594
111.000000,-55.425594
111.500000,-56.291620
111.500000,-56.291620
111.000000,-57.157642
111.000000,-57.157642
110.000000,-57.157642
110.000000,-57.157642
109.500000,-56.291620
109.500000,-56.291620
109.500000,-56.291620
109.000000,-57.157642
109.000000,-57.157642
108.000000,-57.157642
108.000000,-57.157642
108.000000,-57.157642
108.500000,-58.023666
108.500000,-58.023666
108.000000,-58.889690
108.000000,-58.889690
108.000000,-58.889690
109.000000,-58.889690
109.000000,-58.889690
109.500000,-59.755714
109.500000,-59.755714
109.000000,-60.621740
109.000000,-60.621740
108.000000,-60.621740
108.000000,-60.621740
108.000000,-60.621740
108.500000,-61.487762
108.500000,-61.487762
108.000000,-62.353786
108.000000,-62.353786
108.000000,-62.353786
109.000000,-62.353786
109.000000,-62.353786
109.500000,-63.219810
109.500000,-63.219810
109.500000,-63.219810
110.000000,-62.353786
110.000000,-62.353786
111.000000,-62.353786
111.000000,-62.353786
111.500000,-63.219810
111.500000,-63.219810
111.000000,-64.085840
111.000000,-64.085840
111.000000,-64.085840
112.000000,-64.085840
112.000000,-64.085840
112.500000,-64.951866
112.500000,-64.951866
112.500000,-64.951866
113.000000,-64.085840
113.000000,-64.085840
114.000000,-64.085840
114.000000,-64.085840
114.000000,-64.085840
113.500000,-63.219814
113.500000,-63.219814
114.000000,-62.353790
114.000000,-62.353790
115.000000,-62.353790
115.000000,-62.353790
115.500000,-63.219814
115.500000,-63.219814
115.500000,-63.219814
116.000000,-62.353790
116.000000,-62.353790
117.000000,-62.353790
117.000000,-62.353790
117.500000,-63.219814
117.500000,-63.219814
117.000000,-64.085840
117.000000,-64.085840
117.000000,-64.085840
118.000000,-64.085840
118.000000,-64.085840
118.500000,-64.951866
118.500000,-64.951866
118.000000,-65.817894
118.000000,-65.817894
117.000000,-65.817894
117.000000,-65.817894
117.000000,-65.817894
117.500000,-66.683920
117.500000,-66.683920
117.000000,-67.549950
117.000000,-67.549950
117.000000,-67.549950
118.000000,-67.549950
118.000000,-67.549950
118.500000,-68.415980
118.500000,-68.415980
118.500000,-68.415980
119.000000,-67.549950
119.000000,-67.549950
120.000000,-67.549950
120.000000,-67.549950
120.500000,-68.415980
120.500000,-68.415980
120.000000,-69.282005
120.000000,-69.282005
120.000000,-69.282005
121.000000,-69.282005
121.000000,-69.282005
121.500000,-70.148030
121.500000,-70.148030
121.500000,-70.148030
122.000000,-69.282005
122.000000,-69.282005
123.000000,-69.282005
123.000000,-69.282005
123.000000,-69.282005
122.500000,-68.415980
122.500000,-68.415980
123.000000,-67.549950
123.000000,-67.549950
124.000000,-67.549950
124.000000,-67.549950
124.500000,-68.415980
124.500000,-68.415980
124.500000,-68.415980
125.000000,-67.549950
125.000000,-67.549950
126.000000,-67.549950
126.000000,-67.549950
126.000000,-67.549950
125.500000,-66.683920
125.500000,-66.683920
126.000000,-65.817894
126.000000,-65.817894
126.000000,-65.817894
125.000000,-65.817894
125.000000,-65.817894
124.500000,-64.951866
124.500000,-64.951866
125.000000,-64.085840
125.000000,-64.085840
126.000000,-64.085840
126.000000,-64.085840
126.000000,-64.085840
125.500000,-63.219814
125.500000,-63.219814
126.000000,-62.353790
126.000000,-62.353790
127.000000,-62.353790
127.000000,-62.353790
127.500000,-63.219814
127.500000,-63.219814
127.500000,-63.219814
128.000000,-62.353790
128.000000,-62.353790
129.000000,-62.353790
129.000000,-62.353790
129.500000,-63.219814
129.500000,-63.219814
129.000000,-64.085840
129.000000,-64.085840
129.000000,-64.085840
130.000000,-64.085840
130.000000,-64.085840
130.500000,-64.951866
130.500000,-64.951866
130.500000,-64.951866
131.000000,-64.085840
131.000000,-64.085840
132.000000,-64.085840
132.000000,-64.085840
132.000000,-64.085840
131.500000,-63.219814
131.500000,-63.219814
132.000000,-62.353790
132.000000,-62.353790
133.000000,-62.353790
133.000000,-62.353790
133.500000,-63.219814
133.500000,-63.219814
133.500000,-63.219814
134.000000,-62.353790
134.000000,-62.353790
135.000000,-62.353790
135.000000,-62.353790
135.000000,-62.353790
134.500000,-61.487766
134.500000,-61.487766
135.000000,-60.621742
135.000000,-60.621742
135.000000,-60.621742
134.000000,-60.621742
134.000000,-60.621742
133.500000,-59.755720
133.500000,-59.755720
134.000000,-58.889694
134.000000,-58.889694
135.000000,-58.889694
135.000000,-58.889694
135.000000,-58.889694
134.500000,-58.023670
134.500000,-58.023670
135.000000,-57.157646
135.000000,-57.157646
135.000000,-57.157646
134.000000,-57.157646
134.000000,-57.157646
133.500000,-56.291622
133.500000,-56.291622
133.500000,-56.291622
133.000000,-57.157646
133.000000,-57.157646
132.000000,-57.157646
132.000000,-57.157646
131.500000,-56.291622
131.500000,-56.291622
132.000000,-55.425600
132.000000,-55.425600
132.000000,-55.425600
131.000000,-55.425600
131.000000,-55.425600
130.500000,-54.559574
130.500000,-54.559574
131.000000,-53.693550
131.000000,-53.693550
132.000000,-53.693550
132.000000,-53.693550
132.000000,-53.693550
131.500000,-52.827526
131.500000,-52.827526
132.000000,-51.961502
132.000000,-51.961502
133.000000,-51.961502
133.000000,-51.961502
133.500000,-52.827526
133.500000,-52.827526
133.500000,-52.827526
134.000000,-51.961502
134.000000,-51.961502
135.000000,-51.961502
135.000000,-51.961502
135.000000,-51.961502
134.500000,-51.095478
134.500000,-51.095478
135.000000,-50.229454
135.000000,-50.229454
135.000000,-50.229454
134.000000,-50.229454
134.000000,-50.229454
133.500000,-49.363430
133.500000,-49.363430
134.000000,-48.497406
134.000000,-48.497406
135.000000,-48.497406
135.000000,-48.497406
135.000000,-48.497406
134.500000,-47.631382
134.500000,-47.631382
135.000000,-46.765358
135.000000,-46.765358
136.000000,-46.765358
136.000000,-46.765358
136.500000,-47.631382
136.500000,-47.631382
136.500000,-47.631382
137.000000,-46.765358
137.000000,-46.765358
138.000000,-46.765358
138.000000,-46.765358
138.500000,-47.631382
138.500000,-47.631382
138.000000,-48.497406
138.000000,-48.497406
138.000000,-48.497406
139.000000,-48.497406
139.000000,-48.497406
139.500000,-49.363430
139.500000,-49.363430
139.500000,-49.363430
140.000000,-48.497406
140.000000,-48.497406
141.000000,-48.497406
141.000000,-48.497406
141.000000,-48.497406
140.500000,-47.631382
140.500000,-47.631382
141.000000,-46.765358
141.000000,-46.765358
142.000000,-46.765358
142.000000,-46.765358
142.500000,-47.631382
142.500000,-47.631382
142.500000,-47.631382
143.000000,-46.765358
143.000000,-46.765358
144.000000,-46.765358
144.000000,-46.765358
144.500000,-47.631382
144.500000,-47.631382
144.000000,-48.497406
144.000000,-48.497406
144.000000,-48.497406
145.000000,-48.497406
145.000000,-48.497406
145.500000,-49.363430
145.500000,-49.363430
145.000000,-50.229454
145.000000,-50.229454
144.000000,-50.229454
144.000000,-50.229454
144.000000,-50.229454
144.500000,-51.095478
144.500000,-51.095478
144.000000,-51.961502
144.000000,-51.961502
144.000000,-51.961502
145.000000,-51.961502
145.000000,-51.961502
145.500000,-52.827526
145.500000,-52.827526
145.500000,-52.827526
146.000000,-51.961502
146.000000,-51.961502
147.000000,-51.961502
147.000000,-51.961502
147.500000,-52.827526
147.500000,-52.827526
147.000000,-53.693550
147.000000,-53.693550
147.000000,-53.693550
148.000000,-53.693550
148.000000,-53.693550
148.500000,-54.559574
148.500000,-54.559574
148.500000,-54.559574
149.000000,-53.693550
149.000000,-53.693550
150.000000,-53.693550
150.000000,-53.693550
150.000000,-53.693550
149.500000,-52.827526
149.500000,-52.827526
150.000000,-51.961502
150.000000,-51.961502
151.000000,-51.961502
151.000000,-51.961502
151.500000,-52.827526
151.500000,-52.827526
151.500000,-52.827526
152.000000,-51.961502
152.000000,-51.961502
153.000000,-51.961502
153.000000,-51.961502
153.000000,-51.961502
152.500000,-51.095478
152.500000,-51.095478
153.000000,-50.229454
153.000000,-50.229454
153.000000,-50.229454
152.000000,-50.229454
152.000000,-50.229454
151.500000,-49.363430
151.500000,-49.363430
152.000000,-48.497406
152.000000,-48.497406
153.000000,-48.497406
153.000000,-48.497406
153.000000,-48.497406
152.500000,-47.631382
152.500000,-47.631382
153.000000,-46.765358
153.000000,-46.765358
154.000000,-46.765358
154.000000,-46.765358
154.500000,-47.631382
154.500000,-47.631382
154.500000,-47.631382
155.000000,-46.765358
155.000000,-46.765358
156.000000,-46.765358
156.000000,-46.765358
156.500000,-47.631382
156.500000,-47.631382
156.000000,-48.497406
156.000000,-48.497406
156.000000,-48.497406
157.000000,-48.497406
157.000000,-48.497406
157.500000,-49.363430
157.500000,-49.363430
157.500000,-49.363430
158.000000,-48.497406
158.000000,-48.497406
159.000000,-48.497406
159.000000,-48.497406
159.000000,-48.497406
158.500000,-47.631382
158.500000,-47.631382
159.000000,-46.765358
159.000000,-46.765358
160.000000,-46.765358
160.000000,-46.765358
160.500000,-47.631382
160.500000,-47.631382
160.500000,-47.631382
161.000000,-46.765358
161.000000,-46.765358
162.000000,-46.765358
162.000000,-46.765358
162.000000,-46.765358
161.500000,-45.899334
161.500000,-45.899334
162.000000,-45.033310
162.000000,-45.033310
162.000000,-45.033310
161.000000,-45.033310
161.000000,-45.033310
160.500000,-44.167286
160.500000,-44.167286
161.000000,-43.301260
161.000000,-43.301260
162.000000,-43.301260
162.000000,-43.301260
162.000000,-43.301260
161.500000,-42.435238
161.500000,-42.435238
162.000000,-41.569214
162.000000,-41.569214
162.000000,-41.569214
161.000000,-41.569214
161.000000,-41.569214
160.500000,-40.703190
160.500000,-40.703190
160.500000,-40.703190
160.000000,-41.569214
160.000000,-41.569214
159.000000,-41.569214
159.000000,-41.569214
158.500000,-40.703190
158.500000,-40.703190
159.000000,-39.837166
159.000000,-39.837166
159.000000,-39.837166
158.000000,-39.837166
158.000000,-39.837166
157.500000,-38.971140
157.500000,-38.971140
158.000000,-38.105118
158.000000,-38.105118
159.000000,-38.105118
159.000000,-38.105118
159.000000,-38.105118
158.500000,-37.239094
158.500000,-37.239094
159.000000,-36.373070
159.000000,-36.373070
160.000000,-36.373070
160.000000,-36.373070
160.500000,-37.239094
160.500000,-37.239094
160.500000,-37.239094
161.000000,-36.373070
161.000000,-36.373070
162.000000,-36.373070
162.000000,-36.373070
162.000000,-36.373070
161.500000,-35.507046
161.500000,-35.507046
162.000000,-34.641020
162.000000,-34.641020
162.000000,-34.641020
161.000000,-34.641020
161.000000,-34.641020
160.500000,-33.774998
160.500000,-33.774998
161.000000,-32.908974
161.000000,-32.908974
162.000000,-32.908974
162.000000,-32.908974
162.000000,-32.908974
161.500000,-32.042950
161.500000,-32.042950
162.000000,-31.176924
162.000000,-31.176924
162.000000,-31.176924
161.000000,-31.176924
161.000000,-31.176924
160.500000,-30.310898
160.500000,-30.310898
160.500000,-30.310898
160.000000,-31.176924
160.000000,-31.176924
159.000000,-31.176924
159.000000,-31.176924
158.500000,-30.310898
158.500000,-30.310898
159.000000,-29.444872
159.000000,-29.444872
159.000000,-29.444872
158.000000,-29.444872
158.000000,-29.444872
157.500000,-28.578846
157.500000,-28.578846
157.500000,-28.578846
157.000000,-29.444872
157.000000,-29.444872
156.000000,-29.444872
156.000000,-29.444872
156.000000,-29.444872
156.500000,-30.310898
156.500000,-30.310898
156.000000,-31.176924
156.000000,-31.176924
155.000000,-31.176924
155.000000,-31.176924
154.500000,-30.310898
154.500000,-30.310898
154.500000,-30.310898
154.000000,-31.176924
154.000000,-31.176924
153.000000,-31.176924
153.000000,-31.176924
152.500000,-30.310898
152.500000,-30.310898
153.000000,-29.444872
153.000000,-29.444872
153.000000,-29.444872
152.000000,-29.444872
152.000000,-29.444872
151.500000,-28.578846
151.500000,-28.578846
152.000000,-27.712820
152.000000,-27.712820
153.000000,-27.712820
153.000000,-27.712820
153.000000,-27.712820
152.500000,-26.846794
152.500000,-26.846794
153.000000,-25.980768
153.000000,-25.980768
153.000000,-25.980768
152.000000,-25.980768
152.000000,-25.980768
151.500000,-25.114742
151.500000,-25.114742
151.500000,-25.114742
151.000000,-25.980768
151.000000,-25.980768
150.000000,-25.980768
150.000000,-25.980768
149.500000,-25.114742
149.500000,-25.114742
150.000000,-24.248716
150.000000,-24.248716
150.000000,-24.248716
149.000000,-24.248716
149.000000,-24.248716
148.500000,-23.382690
148.500000,-23.382690
149.000000,-22.516665
149.000000,-22.516665
150.000000,-22.516665
150.000000,-22.516665
150.000000,-22.516665
149.500000,-21.650639
149.500000,-21.650639
150.000000,-20.784613
150.000000,-20.784613
151.000000,-20.784613
151.000000,-20.784613
151.500000,-21.650639
151.500000,-21.650639
151.500000,-21.650639
152.000000,-20.784613
152.000000,-20.784613
153.000000,-20.784613
153.000000,-20.784613
153.000000,-20.784613
152.500000,-19.918587
152.500000,-19.918587
153.000000,-19.052560
153.000000,-19.052560
153.000000,-19.052560
152.000000,-19.052560
152.000000,-19.052560
151.500000,-18.186535
151.500000,-18.186535
152.000000,-17.320509
152.000000,-17.320509
153.000000,-17.320509
153.000000,-17.320509
153.000000,-17.320509
152.500000,-16.454483
152.500000,-16.454483
153.000000,-15.588457
153.000000,-15.588457
154.000000,-15.588457
154.000000,-15.588457
154.500000,-16.454483
154.500000,-16.454483
154.500000,-16.454483
155.000000,-15.588457
155.000000,-15.588457
156.000000,-15.588457
156.000000,-15.588457
156.500000,-16.454483
156.500000,-16.454483
156.000000,-17.320509
156.000000,-17.320509
156.000000,-17.320509
157.000000,-17.320509
157.000000,-17.320509
157.500000,-18.186535
157.500000,-18.186535
157.500000,-18.186535
158.000000,-17.320509
158.000000,-17.320509
159.000000,-17.320509
159.000000,-17.320509
159.000000,-17.320509
158.500000,-16.454483
158.500000,-16.454483
159.000000,-15.588457
159.000000,-15.588457
160.000000,-15.588457
160.000000,-15.588457
160.500000,-16.454483
160.500000,-16.454483
160.500000,-16.454483
161.000000,-15.588457
161.000000,-15.588457
162.000000,-15.588457
162.000000,-15.588457
162.000000,-15.588457
161.500000,-14.722432
161.500000,-14.722432
162.000000,-13.856407
162.000000,-13.856407
162.000000,-13.856407
161.000000,-13.856407
161.000000,-13.856407
160.500000,-12.990382
160.500000,-12.990382
161.000000,-12.124357
161.000000,-12.124357
162.000000,-12.124357
162.000000,-12.124357
162.000000,-12.124357
161.500000,-11.258332
161.500000,-11.258332
162.000000,-10.392307
162.000000,-10.392307
162.000000,-10.392307
161.000000,-10.392307
161.000000,-10.392307
160.500000, -9.526282
160.500000, -9.526282
160.500000, -9.526282
160.000000,-10.392307
160.000000,-10.392307
159.000000,-10.392307
159.000000,-10.392307
158.500000, -9.526282
158.500000, -9.526282
159.000000, -8.660257
159.000000, -8.660257
159.000000, -8.660257
158.000000, -8.660257
158.000000, -8.660257
157.500000, -7.794232
157.500000, -7.794232
158.000000, -6.928206
158.000000, -6.928206
159.000000, -6.928206
159.000000, -6.928206
159.000000, -6.928206
158.500000, -6.062181
158.500000, -6.062181
159.000000, -5.196156
159.000000, -5.196156
160.000000, -5.196156
160.000000, -5.196156
160.500000, -6.062181
160.500000, -6.062181
160.500000, -6.062181
161.000000, -5.196156
161.000000, -5.196156
162.000000, -5.196156
162.000000, -5.196156
162.000000, -5.196156
161.500000, -4.330130
161.500000, -4.330130
162.000000, -3.464105
162.000000, -3.464105
162.000000, -3.464105
161.000000, -3.464105
161.000000, -3.464105
160.500000, -2.598079
160.500000, -2.598079
161.000000, -1.732054
161.000000, -1.732054
162.000000, -1.732054
162.000000, -1.732054
162.000000, -1.732054
161.500000, -0.866028
161.500000, -0.866028
162.000000, -0.000003
162.000000, -0.000003
163.000000, -0.000003
163.000000, -0.000003
163.500000, -0.866028
163.500000, -0.866028
163.500000, -0.866028
164.000000, -0.000003
164.000000, -0.000003
165.000000, -0.000003
165.000000, -0.000003
165.500000, -0.866028
165.500000, -0.866028
165.000000, -1.732054
165.000000, -1.732054
165.000000, -1.732054
166.000000, -1.732054
166.000000, -1.732054
166.500000, -2.598079
166.500000, -2.598079
166.500000, -2.598079
167.000000, -1.732054
167.000000, -1.732054
168.000000, -1.732054
168.000000, -1.732054
168.000000, -1.732054
167.500000, -0.866028
167.500000, -0.866028
168.000000, -0.000003
168.000000, -0.000003
169.000000, -0.000003
169.000000, -0.000003
169.500000, -0.866028
169.500000, -0.866028
169.500000, -0.866028
170.000000, -0.000003
170.000000, -0.000003
171.000000, -0.000003
171.000000, -0.000003
171.500000, -0.866028
171.500000, -0.866028
171.000000, -1.732054
171.000000, -1.732054
171.000000, -1.732054
172.000000, -1.732054
172.000000, -1.732054
172.500000, -2.598079
172.500000, -2.598079
172.000000, -3.464105
172.000000, -3.464105
171.000000, -3.464105
171.000000, -3.464105
171.000000, -3.464105
171.500000, -4.330130
171.500000, -4.330130
171.000000, -5.196156
171.000000, -5.196156
171.000000, -5.196156
172.000000, -5.196156
172.000000, -5.196156
172.500000, -6.062181
172.500000, -6.062181
172.500000, -6.062181
173.000000, -5.196156
173.000000, -5.196156
174.000000, -5.196156
174.000000, -5.196156
174.500000, -6.062181
174.500000, -6.062181
174.000000, -6.928206
174.000000, -6.928206
174.000000, -6.928206
175.000000, -6.928206
175.000000, -6.928206
175.500000, -7.794232
175.500000, -7.794232
175.500000, -7.794232
176.000000, -6.928206
176.000000, -6.928206
177.000000, -6.928206
177.000000, -6.928206
177.000000, -6.928206
176.500000, -6.062181
176.500000, -6.062181
177.000000, -5.196156
177.000000, -5.196156
178.000000, -5.196156
178.000000, -5.196156
178.500000, -6.062181
178.500000, -6.062181
178.500000, -6.062181
179.000000, -5.196156
179.000000, -5.196156
180.000000, -5.196156
180.000000, -5.196156
180.000000, -5.196156
179.500000, -4.330130
179.500000, -4.330130
180.000000, -3.464105
180.000000, -3.464105
180.000000, -3.464105
179.000000, -3.464105
179.000000, -3.464105
178.500000, -2.598079
178.500000, -2.598079
179.000000, -1.732054
179.000000, -1.732054
180.000000, -1.732054
180.000000, -1.732054
180.000000, -1.732054
179.500000, -0.866028
179.500000, -0.866028
180.000000, -0.000003
180.000000, -0.000003
181.000000, -0.000003
181.000000, -0.000003
181.500000, -0.866028
181.500000, -0.866028
181.500000, -0.866028
182.000000, -0.000003
182.000000, -0.000003
183.000000, -0.000003
183.000000, -0.000003
183.500000, -0.866028
183.500000, -0.866028
183.000000, -1.732054
183.000000, -1.732054
183.000000, -1.732054
184.000000, -1.732054
184.000000, -1.732054
184.500000, -2.598079
184.500000, -2.598079
184.500000, -2.598079
185.000000, -1.732054
185.000000, -1.732054
186.000000, -1.732054
186.000000, -1.732054
186.000000, -1.732054
185.500000, -0.866028
185.500000, -0.866028
186.000000, -0.000003
186.000000, -0.000003
187.000000, -0.000003
187.000000, -0.000003
187.500000, -0.866028
187.500000, -0.866028
187.500000, -0.866028
188.000000, -0.000003
188.000000, -0.000003
189.000000, -0.000003
189.000000, -0.000003
189.500000, -0.866028
189.500000, -0.866028
189.000000, -1.732054
189.000000, -1.732054
189.000000, -1.732054
190.000000, -1.732054
190.000000, -1.732054
190.500000, -2.598079
190.500000, -2.598079
190.000000, -3.464105
190.000000, -3.464105
189.000000, -3.464105
189.000000, -3.464105
189.000000, -3.464105
189.500000, -4.330130
189.500000, -4.330130
189.000000, -5.196156
189.000000, -5.196156
189.000000, -5.196156
190.000000, -5.196156
190.000000, -5.196156
190.500000, -6.062181
190.500000, -6.062181
190.500000, -6.062181
191.000000, -5.196156
191.000000, -5.196156
192.000000, -5.196156
192.000000, -5.196156
192.500000, -6.062181
192.500000, -6.062181
192.000000, -6.928206
192.000000, -6.928206
192.000000, -6.928206
193.000000, -6.928206
193.000000, -6.928206
193.500000, -7.794232
193.500000, -7.794232
193.000000, -8.660257
193.000000, -8.660257
192.000000, -8.660257
192.000000, -8.660257
192.000000, -8.660257
192.500000, -9.526283
192.500000, -9.526283
192.000000,-10.392308
192.000000,-10.392308
191.000000,-10.392308
191.000000,-10.392308
190.500000, -9.526283
190.500000, -9.526283
190.500000, -9.526283
190.000000,-10.392308
190.000000,-10.392308
189.000000,-10.392308
189.000000,-10.392308
189.000000,-10.392308
189.500000,-11.258333
189.500000,-11.258333
189.000000,-12.124358
189.000000,-12.124358
189.000000,-12.124358
190.000000,-12.124358
190.000000,-12.124358
190.500000,-12.990383
190.500000,-12.990383
190.000000,-13.856408
190.000000,-13.856408
189.000000,-13.856408
189.000000,-13.856408
189.000000,-13.856408
189.500000,-14.722433
189.500000,-14.722433
189.000000,-15.588458
189.000000,-15.588458
189.000000,-15.588458
190.000000,-15.588458
190.000000,-15.588458
190.500000,-16.454483
190.500000,-16.454483
190.500000,-16.454483
191.000000,-15.588457
191.000000,-15.588457
192.000000,-15.588457
192.000000,-15.588457
192.500000,-16.454483
192.500000,-16.454483
192.000000,-17.320509
192.000000,-17.320509
192.000000,-17.320509
193.000000,-17.320509
193.000000,-17.320509
193.500000,-18.186535
193.500000,-18.186535
193.500000,-18.186535
194.000000,-17.320509
194.000000,-17.320509
195.000000,-17.320509
195.000000,-17.320509
195.000000,-17.320509
194.500000,-16.454483
194.500000,-16.454483
195.000000,-15.588457
195.000000,-15.588457
196.000000,-15.588457
196.000000,-15.588457
196.500000,-16.454483
196.500000,-16.454483
196.500000,-16.454483
197.000000,-15.588457
197.000000,-15.588457
198.000000,-15.588457
198.000000,-15.588457
198.500000,-16.454483
198.500000,-16.454483
198.000000,-17.320509
198.000000,-17.320509
198.000000,-17.320509
199.000000,-17.320509
199.000000,-17.320509
199.500000,-18.186535
199.500000,-18.186535
199.000000,-19.052560
199.000000,-19.052560
198.000000,-19.052560
198.000000,-19.052560
198.000000,-19.052560
198.500000,-19.918587
198.500000,-19.918587
198.000000,-20.784613
198.000000,-20.784613
198.000000,-20.784613
199.000000,-20.784613
199.000000,-20.784613
199.500000,-21.650639
199.500000,-21.650639
199.500000,-21.650639
200.000000,-20.784613
200.000000,-20.784613
201.000000,-20.784613
201.000000,-20.784613
201.500000,-21.650639
201.500000,-21.650639
201.000000,-22.516665
201.000000,-22.516665
201.000000,-22.516665
202.000000,-22.516665
202.000000,-22.516665
202.500000,-23.382690
202.500000,-23.382690
202.500000,-23.382690
203.000000,-22.516665
203.000000,-22.516665
204.000000,-22.516665
204.000000,-22.516665
204.000000,-22.516665
203.500000,-21.650639
203.500000,-21.650639
204.000000,-20.784613
204.000000,-20.784613
205.000000,-20.784613
205.000000,-20.784613
205.500000,-21.650639
205.500000,-21.650639
205.500000,-21.650639
206.000000,-20.784613
206.000000,-20.784613
207.000000,-20.784613
207.000000,-20.784613
207.000000,-20.784613
206.500000,-19.918587
206.500000,-19.918587
207.000000,-19.052560
207.000000,-19.052560
207.000000,-19.052560
206.000000,-19.052560
206.000000,-19.052560
205.500000,-18.186535
205.500000,-18.186535
206.000000,-17.320509
206.000000,-17.320509
207.000000,-17.320509
207.000000,-17.320509
207.000000,-17.320509
206.500000,-16.454483
206.500000,-16.454483
207.000000,-15.588457
207.000000,-15.588457
208.000000,-15.588457
208.000000,-15.588457
208.500000,-16.454483
208.500000,-16.454483
208.500000,-16.454483
209.000000,-15.588457
209.000000,-15.588457
210.000000,-15.588457
210.000000,-15.588457
210.500000,-16.454483
210.500000,-16.454483
210.000000,-17.320509
210.000000,-17.320509
210.000000,-17.320509
211.000000,-17.320509
211.000000,-17.320509
211.500000,-18.186535
211.500000,-18.186535
211.500000,-18.186535
212.000000,-17.320509
212.000000,-17.320509
213.000000,-17.320509
213.000000,-17.320509
213.000000,-17.320509
212.500000,-16.454483
212.500000,-16.454483
213.000000,-15.588457
213.000000,-15.588457
214.000000,-15.588457
214.000000,-15.588457
214.500000,-16.454483
214.500000,-16.454483
214.500000,-16.454483
215.000000,-15.588457
215.000000,-15.588457
216.000000,-15.588457
216.000000,-15.588457
216.000000,-15.588457
215.500000,-14.722432
215.500000,-14.722432
216.000000,-13.856407
216.000000,-13.856407
216.000000,-13.856407
215.000000,-13.856407
215.000000,-13.856407
214.500000,-12.990382
214.500000,-12.990382
215.000000,-12.124357
215.000000,-12.124357
216.000000,-12.124357
216.000000,-12.124357
216.000000,-12.124357
215.500000,-11.258332
215.500000,-11.258332
216.000000,-10.392307
216.000000,-10.392307
216.000000,-10.392307
215.000000,-10.392307
215.000000,-10.392307
214.500000, -9.526282
214.500000, -9.526282
214.500000, -9.526282
214.000000,-10.392307
214.000000,-10.392307
213.000000,-10.392307
213.000000,-10.392307
212.500000, -9.526282
212.500000, -9.526282
213.000000, -8.660257
213.000000, -8.660257
213.000000, -8.660257
212.000000, -8.660257
212.000000, -8.660257
211.500000, -7.794232
211.500000, -7.794232
212.000000, -6.928206
212.000000, -6.928206
213.000000, -6.928206
213.000000, -6.928206
213.000000, -6.928206
212.500000, -6.062181
212.500000, -6.062181
213.000000, -5.196156
213.000000, -5.196156
214.000000, -5.196156
214.000000, -5.196156
214.500000, -6.062181
214.500000, -6.062181
214.500000, -6.062181
215.000000, -5.196156
215.000000, -5.196156
216.000000, -5.196156
216.000000, -5.196156
216.000000, -5.196156
215.500000, -4.330130
215.500000, -4.330130
216.000000, -3.464105
216.000000, -3.464105
216.000000, -3.464105
215.000000, -3.464105
215.000000, -3.464105
214.500000, -2.598079
214.500000, -2.598079
215.000000, -1.732054
215.000000, -1.732054
216.000000, -1.732054
216.000000, -1.732054
216.000000, -1.732054
215.500000, -0.866028
215.500000, -0.866028
216.000000, -0.000003
216.000000, -0.000003
217.000000, -0.000003
217.000000, -0.000003
217.500000, -0.866028
217.500000, -0.866028
217.500000, -0.866028
218.000000, -0.000003
218.000000, -0.000003
219.000000, -0.000003
219.000000, -0.000003
219.500000, -0.866028
219.500000, -0.866028
219.000000, -1.732054
219.000000, -1.732054
219.000000, -1.732054
220.000000, -1.732054
220.000000, -1.732054
220.500000, -2.598079
220.500000, -2.598079
220.500000, -2.598079
221.000000, -1.732054
221.000000, -1.732054
222.000000, -1.732054
222.000000, -1.732054
222.000000, -1.732054
221.500000, -0.866028
221.500000, -0.866028
222.000000, -0.000003
222.000000, -0.000003
223.000000, -0.000003
223.000000, -0.000003
223.500000, -0.866028
223.500000, -0.866028
223.500000, -0.866028
224.000000, -0.000003
224.000000, -0.000003
225.000000, -0.000003
225.000000, -0.000003
225.500000, -0.866028
225.500000, -0.866028
225.000000, -1.732054
225.000000, -1.732054
225.000000, -1.732054
226.000000, -1.732054
226.000000, -1.732054
226.500000, -2.598079
226.500000, -2.598079
226.000000, -3.464105
226.000000, -3.464105
225.000000, -3.464105
225.000000, -3.464105
225.000000, -3.464105
225.500000, -4.330130
225.500000, -4.330130
225.000000, -5.196156
225.000000, -5.196156
225.000000, -5.196156
226.000000, -5.196156
226.000000, -5.196156
226.500000, -6.062181
226.500000, -6.062181
226.500000, -6.062181
227.000000, -5.196156
227.000000, -5.196156
228.000000, -5.196156
228.000000, -5.196156
228.500000, -6.062181
228.500000, -6.062181
228.000000, -6.928206
228.000000, -6.928206
228.000000, -6.928206
229.000000, -6.928206
229.000000, -6.928206
229.500000, -7.794232
229.500000, -7.794232
229.500000, -7.794232
230.000000, -6.928206
230.000000, -6.928206
231.000000, -6.928206
231.000000, -6.928206
231.000000, -6.928206
230.500000, -6.062181
230.500000, -6.062181
231.000000, -5.196156
231.000000, -5.196156
232.000000, -5.196156
232.000000, -5.196156
232.500000, -6.062181
232.500000, -6.062181
232.500000, -6.062181
233.000000, -5.196156
233.000000, -5.196156
234.000000, -5.196156
234.000000, -5.196156
234.000000, -5.196156
233.500000, -4.330130
233.500000, -4.330130
234.000000, -3.464105
234.000000, -3.464105
234.000000, -3.464105
233.000000, -3.464105
233.000000, -3.464105
232.500000, -2.598079
232.500000, -2.598079
233.000000, -1.732054
233.000000, -1.732054
234.000000, -1.732054
234.000000, -1.732054
234.000000, -1.732054
233.500000, -0.866028
233.500000, -0.866028
234.000000, -0.000003
234.000000, -0.000003
235.000000, -0.000003
235.000000, -0.000003
235.500000, -0.866028
235.500000, -0.866028
235.500000, -0.866028
236.000000, -0.000003
236.000000, -0.000003
237.000000, -0.000003
237.000000, -0.000003
237.500000, -0.866028
237.500000, -0.866028
237.000000, -1.732054
237.000000, -1.732054
237.000000, -1.732054
238.000000, -1.732054
238.000000, -1.732054
238.500000, -2.598079
238.500000, -2.598079
238.500000, -2.598079
239.000000, -1.732054
239.000000, -1.732054
240.000000, -1.732054
240.000000, -1.732054
240.000000, -1.732054
239.500000, -0.866028
239.500000, -0.866028
240.000000, -0.000003
240.000000, -0.000003
241.000000, -0.000003
241.000000, -0.000003
241.500000, -0.866028
241.500000, -0.866028
241.500000, -0.866028
242.000000, -0.000003
242.000000, -0.000003
243.000000, -0.000003
 "
/>
</svg>
