<svg xmlns="http://www.w3.org/2000/svg"
 viewBox="-0.38971147 -8.183941 27.779423 8.573652"
>
<polyline
 fill="none" stroke="green" stroke-width="0.25%"
 points="
  0.000000,  0.000000
  1.000000,  0.000000
  1.000000,  0.000000
  1.500000, -0.866025
  1.500000, -0.866025
  1.500000, -0.866025
  2.000000,  0.000000
  2.000000,  0.000000
  3.000000,  0.000000
  3.000000,  0.000000
  3.500000, -0.866025
  3.500000, -0.866025
  3.000000, -1.732051
  3.000000, -1.732051
  3.000000, -1.732051
  4.000000, -1.732051
  4.000000, -1.732051
  4.500000, -2.598076
  4.500000, -2.598076
  4.500000, -2.598076
  5.000000, -1.732051
  5.000000, -1.732051
  6.000000, -1.732051
  6.000000, -1.732051
  6.000000, -1.732051
  5.500000, -0.866026
  5.500000, -0.866026
  6.000000, -0.000000
  6.000000, -0.000000
  7.000000, -0.000000
  7.000000, -0.000000
  7.500000, -0.866026
  7.500000, -0.866026
  7.500000, -0.866026
  8.000000, -0.000000
  8.000000, -0.000000
  9.000000, -0.000000
  9.000000, -0.000000
  9.500000, -0.866026
  9.500000, -0.866026
  9.000000, -1.732051
  9.000000, -1.732051
  9.000000, -1.732051
 10.000000, -1.732051
 10.000000, -1.732051
 10.500000, -2.598076
 10.500000, -2.598076
 10.000000, -3.464102
 10.000000, -3.464102
  9.000000, -3.464102
  9.000000, -3.464102
  9.000000, -3.464102
  9.500000, -4.330127
  9.500000, -4.330127
  9.000000, -5.196153
  9.000000, -5.196153
  9.000000, -5.196153
 10.000000, -5.196153
 10.000000, -5.196153
 10.500000, -6.062178
 10.500000, -6.062178
 10.500000, -6.062178
 11.000000, -5.196153
 11.000000, -5.196153
 12.000000, -5.196153
 12.000000, -5.196153
 12.500000, -6.062178
 12.500000, -6.062178
 12.000000, -6.928204
 12.000000, -6.928204
 12.000000, -6.928204
 13.000000, -6.928204
 13.000000, -6.928204
 13.500000, -7.794229
 13.500000, -7.794229
 13.500000, -7.794229
 14.000000, -6.928204
 14.000000, -6.928204
 15.000000, -6.928204
 15.000000, -6.928204
 15.000000, -6.928204
 14.500000, -6.062178
 14.500000, -6.062178
 15.000000, -5.196153
 15.000000, -5.196153
 16.000000, -5.196153
 16.000000, -5.196153
 16.500000, -6.062178
 16.500000, -6.062178
 16.500000, -6.062178
 17.000000, -5.196153
 17.000000, -5.196153
 18.000000, -5.196153
 18.000000, -5.196153
 18.000000, -5.196153
 17.500000, -4.330127
 17.500000, -4.330127
 18.000000, -3.464102
 18.000000, -3.464102
 18.000000, -3.464102
 17.000000, -3.464102
 17.000000, -3.464102
 16.500000, -2.598076
 16.500000, -2.598076
 17.000000, -1.732051
 17.000000, -1.732051
 18.000000, -1.732051
 18.000000, -1.732051
 18.000000, -1.732051
 17.500000, -0.866026
 17.500000, -0.866026
 18.000000, -0.000000
 18.000000, -0.000000
 19.000000, -0.000000
 19.000000, -0.000000
 19.500000, -0.866026
 19.500000, -0.866026
 19.500000, -0.866026
 20.000000, -0.000000
 20.000000, -0.000000
 21.000000, -0.000000
 21.000000, -0.000000
 21.500000, -0.866026
 21.500000, -0.866026
 21.000000, -1.732051
 21.000000, -1.732051
 21.000000, -1.732051
 22.000000, -1.732051
 22.000000, -1.732051
 22.500000, -2.598076
 22.500000, -2.598076
 22.500000, -2.598076
 23.000000, -1.732051
 23.000000, -1.732051
 24.000000, -1.732051
 24.000000, -1.732051
 24.000000, -1.732051
 23.500000, -0.866026
 23.500000, -0.866026
 24.000000, -0.000000
 24.000000, -0.000000
 25.000000, -0.000000
 25.000000, -0.000000
 25.500000, -0.866026
 25.500000, -0.866026
 25.500000, -0.866026
 26.000000, -0.000000
 26.000000, -0.000000
 27.000000, -0.000000
 "
/>
</svg>
