<svg xmlns="http://www.w3.org/2000/svg"
 viewBox="-1.3 -5.3 6.6 6.6"
>
<polyline
 fill="none" stroke="green" stroke-width="0.25%"
 points="
  0.000000,  0.000000
  1.000000,  0.000000
  1.000000,  0.000000
  1.000000, -1.000000
  1.000000, -1.000000
  2.000000, -1.000000
  2.000000, -1.000000
  2.000000,  0.000000
  2.000000,  1.000000
  2.000000,  1.000000
  3.000000,  1.000000
  3.000000,  1.000000
  3.000000,  0.000000
  3.000000,  0.000000
  4.000000,  0.000000
  4.000000,  0.000000
  4.000000, -1.000000
  4.000000, -1.000000
  3.000000, -1.000000
  3.000000, -1.000000
  3.000000, -2.000000
  3.000000, -2.000000
  4.000000, -2.000000
  5.000000, -2.000000
  5.000000, -2.000000
  5.000000, -3.000000
  5.000000, -3.000000
  4.000000, -3.000000
  4.000000, -3.000000
  4.000000, -4.000000
  4.000000, -4.000000
  3.000000, -4.000000
  3.000000, -4.000000
  3.000000, -3.000000
  3.000000, -3.000000
  2.000000, -3.000000
  2.000000, -3.000000
  2.000000, -4.000000
  2.000000, -5.000000
  2.000000, -5.000000
  1.000000, -5.000000
  1.000000, -5.000000
  1.000000, -4.000000
  1.000000, -4.000000
  0.000000, -4.000000
  0.000000, -4.000000
  0.000000, -3.000000
  0.000000, -3.000000
  1.000000, -3.000000
  1.000000, -3.000000
  1.000000, -2.000000
  1.000000, -2.000000
  0.000000, -2.000000
 -1.000000, -2.000000
 -1.000000, -2.000000
 -1.000000, -1.000000
 -1.000000, -1.000000
  0.000000, -1.000000
  0.000000, -1.000000
  0.000000, -0.000000
 "
/>
</svg>
